<?xml version="1.0" standalone="no"?>
<svg xmlns:xlink="http://www.w3.org/1999/xlink" id="wave" style="transform:rotate(0deg); transition: 0.3s" viewBox="0 0 1440 490" version="1.1" xmlns="http://www.w3.org/2000/svg"><defs><linearGradient id="sw-gradient-0" x1="0" x2="0" y1="1" y2="0"><stop stop-color="rgba(89.826, 80.976, 78.133, 0.47)" offset="0%"/><stop stop-color="rgba(255, 179, 11, 0.68)" offset="100%"/></linearGradient></defs><path style="transform:translate(0, 0px); opacity:1" fill="url(#sw-gradient-0)" d="M0,0L60,16.3C120,33,240,65,360,130.7C480,196,600,294,720,343C840,392,960,392,1080,383.8C1200,376,1320,359,1440,351.2C1560,343,1680,343,1800,351.2C1920,359,2040,376,2160,318.5C2280,261,2400,131,2520,89.8C2640,49,2760,98,2880,171.5C3000,245,3120,343,3240,318.5C3360,294,3480,147,3600,147C3720,147,3840,294,3960,302.2C4080,310,4200,180,4320,179.7C4440,180,4560,310,4680,351.2C4800,392,4920,343,5040,318.5C5160,294,5280,294,5400,253.2C5520,212,5640,131,5760,130.7C5880,131,6000,212,6120,236.8C6240,261,6360,229,6480,236.8C6600,245,6720,294,6840,285.8C6960,278,7080,212,7200,155.2C7320,98,7440,49,7560,98C7680,147,7800,294,7920,343C8040,392,8160,343,8280,334.8C8400,327,8520,359,8580,375.7L8640,392L8640,490L8580,490C8520,490,8400,490,8280,490C8160,490,8040,490,7920,490C7800,490,7680,490,7560,490C7440,490,7320,490,7200,490C7080,490,6960,490,6840,490C6720,490,6600,490,6480,490C6360,490,6240,490,6120,490C6000,490,5880,490,5760,490C5640,490,5520,490,5400,490C5280,490,5160,490,5040,490C4920,490,4800,490,4680,490C4560,490,4440,490,4320,490C4200,490,4080,490,3960,490C3840,490,3720,490,3600,490C3480,490,3360,490,3240,490C3120,490,3000,490,2880,490C2760,490,2640,490,2520,490C2400,490,2280,490,2160,490C2040,490,1920,490,1800,490C1680,490,1560,490,1440,490C1320,490,1200,490,1080,490C960,490,840,490,720,490C600,490,480,490,360,490C240,490,120,490,60,490L0,490Z"/></svg>